<svg version="1.1" id="Layer_1" xmlns="http://www.w3.org/2000/svg" xmlns:xlink="http://www.w3.org/1999/xlink" x="0px" y="0px" width="93.835px" height="231.913px" viewBox="0 0 93.835 231.913" enable-background="new 0 0 93.835 231.913" xml:space="preserve">
	<path fill="none" class="hand-path" stroke="#000000" stroke-width="2" stroke-miterlimit="10" d="M83.992,129.116l2.856,48.851
		c0,0-16.457,33.702-18.456,34.846c-1.999,1.142-24.591,4.683-29.162,2.683c-4.57-2-27.227-8.391-25.228-11.612
		s7.714-2.778,7.714-2.778c20.6,4.059,31.201,2.018,32.666,1.068s2.83-4,2.616-6.131s2.333-13.632,9.567-17.79
		c8.232-4.732,0-17.712,0-17.712l-10.531-11.254c-1.916-1.292-0.056-5.58-2.297-7.52c-4.675-4.045-6.633-3.123-8.312-3.794
		c-2.856-1.144-12.569,3.143-13.141,18.569c-0.571,15.426-0.571,39.707-9.141,41.422s-4.332-35.139-4.332-35.139
		c3.669-22.567,3.188-27.423,0.618-52.847c-2.572-25.423,3.714-39.994,3.714-39.994"/>
	<path fill="none" class="hand-path" stroke="#000000" stroke-width="2" stroke-miterlimit="10" d="M17.97,220.03c0,0-12.823,0.787-13.679,5.357
		c-0.857,4.57,33.916,7.483,41.291,3.965c7.229-3.449,19.885-2.869,24.957-4.043c16.31-3.773,19.991-33.316,22.121-46.523
		c0.625-3.875-0.533-11.114-1.75-16.5c-3.355-14.855-6.799-31.126-6.799-31.126s2.737,18.618,2.737,26.033
		c0,5.247,0.604,14.639,1.09,21.331c0.325,4.487,1.034,5.512,0.597,7.762s-1.035,3.283-1.687,4.667
		c-16.508,35.042-19.887,30.626-19.887,30.626c-17.711-3.427-31.488,2.326-31.488,2.326c-23.995-1.144-34.325-16.587-34.325-16.587
		c3.428-7.141,13.473-1.688,13.473-1.688"/>
	<path fill="none" class="hand-path" stroke="#000000" stroke-width="2" stroke-miterlimit="10" d="M34.221,100.279c0,0-1.43,4.473,0,8.588
		c1.432,4.116,32.431,36.361,30.654,49.399"/>
	<path fill="none" class="hand-path" stroke="#000000" stroke-width="2" stroke-miterlimit="10" d="M84.111,131.16c0,0-4.983-68.633-1.048-74.714
		c3.936-6.08,12.883-25.404-2.504-55.997"/>
</svg>
